{"accessors" : [{"bufferView" : 0, "byteOffset" : 0, "componentType" : 5123, "count" : 26718, "type" : "SCALAR", "max" : [22434], "min" : [0]}, {"bufferView" : 1, "byteOffset" : 0, "componentType" : 5126, "count" : 22435, "type" : "VEC3", "max" : [55.43572235107422, 143.06954956054688, 31.274620056152344], "min" : [-55.43572235107422, -0.1226062923669815, -39.8248405456543], "name" : "POSITION"}, {"bufferView" : 1, "byteOffset" : 12, "componentType" : 5126, "count" : 22435, "type" : "VEC3", "max" : [0.9998098015785217, 0.9996748566627502, 0.9997757077217102], "min" : [-0.9998087882995605, -0.9999929666519165, -0.9998036623001099], "name" : "NORMAL"}, {"bufferView" : 1, "byteOffset" : 24, "componentType" : 5126, "count" : 22435, "type" : "VEC3", "max" : [1, 1, 1], "min" : [1, 1, 1], "name" : "COLOR_0"}, {"bufferView" : 1, "byteOffset" : 36, "componentType" : 5126, "count" : 22435, "type" : "VEC3", "max" : [1, 1, 1], "min" : [0, 0, 0], "name" : "COLOR_1"}, {"bufferView" : 1, "byteOffset" : 48, "componentType" : 5126, "count" : 22435, "type" : "VEC2", "max" : [0.9979915618896484, -0.0022548437118530273], "min" : [0.003473704680800438, -0.9961963891983032], "name" : "TEXCOORD_0"}, {"bufferView" : 0, "byteOffset" : 53436, "componentType" : 5123, "count" : 2304, "type" : "SCALAR", "max" : [2303], "min" : [0]}, {"bufferView" : 2, "byteOffset" : 0, "componentType" : 5126, "count" : 2304, "type" : "VEC3", "max" : [0.5122860074043274, 2.0673904418945312, 3.007812261581421], "min" : [-1.1989952325820923, 0.3611460328102112, 1.3035286664962769], "name" : "POSITION"}, {"bufferView" : 2, "byteOffset" : 12, "componentType" : 5126, "count" : 2304, "type" : "VEC3", "max" : [0.9992141127586365, 0.9967471957206726, 0.9954158663749695], "min" : [-0.9992141127586365, -0.9967471957206726, -0.9954158663749695], "name" : "NORMAL"}, {"bufferView" : 2, "byteOffset" : 24, "componentType" : 5126, "count" : 2304, "type" : "VEC2", "max" : [0.8750001192092896, -0], "min" : [0.1250000149011612, -1.0000001192092896], "name" : "TEXCOORD_0"}], "asset" : {"generator" : "Aspose.3D 22.1", "version" : "2.0"}, "buffers" : [{"uri" : "data:application/octet-stream;base64,", "byteLength" : 1627992}], "bufferViews" : [{"buffer" : 0, "byteOffset" : 0, "byteLength" : 58044, "target" : 34963}, {"buffer" : 0, "byteOffset" : 58048, "byteLength" : 1496208, "byteStride" : 56, "target" : 34962}, {"buffer" : 0, "byteOffset" : 1554260, "byteLength" : 73728, "byteStride" : 32, "target" : 34962}], "images" : [{"uri" : "gn3_texture/T_GN3_N.png"}, {"uri" : "gn3_texture/T_GN3_D.png"}], "materials" : [{"name" : "", "pbrMetallicRoughness" : {"baseColorFactor" : [1, 1, 1, 1], "baseColorTexture" : {"index" : 1, "texCoord" : 0}, "metallicFactor" : 0, "roughnessFactor" : 0}, "normalTexture" : {"index" : 0, "texCoord" : 0, "scale" : 1}, "emissiveFactor" : [0, 0, 0], "alphaMode" : "OPAQUE", "doubleSided" : false}, {"name" : "", "pbrMetallicRoughness" : {"baseColorFactor" : [0.1428571492433548, 0.1428571492433548, 0.1428571492433548, 1], "metallicFactor" : 0, "roughnessFactor" : 0}, "emissiveFactor" : [0, 0, 0], "alphaMode" : "OPAQUE", "doubleSided" : false}], "meshes" : [{"primitives" : [{"attributes" : {"POSITION" : 1, "NORMAL" : 2, "COLOR_0" : 3, "COLOR_1" : 4, "TEXCOORD_0" : 5}, "indices" : 0, "material" : 0, "mode" : 4}], "name" : ""}, {"primitives" : [{"attributes" : {"POSITION" : 7, "NORMAL" : 8, "TEXCOORD_0" : 9}, "indices" : 6, "material" : 1, "mode" : 4}], "name" : ""}], "nodes" : [{"matrix" : [0.1, 0, 0, 0, 0, 0.1, 0, 0, 0, 0, 0.1, 0, 0, 0, 0, 1], "mesh" : 0, "name" : "GN3"}, {"matrix" : [1.121047797330783, -1.430738788872965, -0.6258555484862457, 0, 1.183186005446197, 1.2809925505466266, -0.8090647535378236, 0, 1.0192053404849144, 0.086610720556225, 1.6276289105532196, 0, 0, 0, 0, 1], "mesh" : 1, "name" : "cannonball"}], "samplers" : [{"magFilter" : 9729, "minFilter" : 9729, "wrapS" : 10497, "wrapT" : 10497}, {"magFilter" : 9729, "minFilter" : 9729, "wrapS" : 10497, "wrapT" : 10497}], "scene" : 0, "scenes" : [{"nodes" : [0, 1]}], "textures" : [{"sampler" : 0, "source" : 0}, {"sampler" : 1, "source" : 1}]}