<svg xmlns="http://www.w3.org/2000/svg" xmlns:xlink="http://www.w3.org/1999/xlink" width="518.828" height="54.429" viewBox="0 0 518.828 54.429">
  <defs>
    <linearGradient id="linear-gradient" x1="0.544" y1="0.959" x2="0.544" gradientUnits="objectBoundingBox">
      <stop offset="0" stop-color="#ffda47"/>
      <stop offset="1" stop-color="#efefef"/>
    </linearGradient>
  </defs>
  <path id="Path_2255" data-name="Path 2255" d="M9.084-51.266H22.652l9.924,31.753,9.93-31.753H55.592L62.413,1.71H51.537L46.859-35.571,35.2,1.71H30.017l-11.966-37.6L13.636,1.71H2.578Zm80.034,0h8.846L119.545,1.71H108.055L103.814-8.7H83.484L79.33,1.71H67.9Zm4.424,17.349L87.313-18.3H99.9Zm33.912-17.349H144.9q7.958,0,12.583,4.194t4.625,11.332a19.454,19.454,0,0,1-2.122,8.469q-2.122,4.4-7.821,6.9L166.994,1.71h-13.12l-13.711-20.5h-1.291V1.71H127.454Zm11.5,9.441v13.8h2.47q8.948,0,8.948-7.3a5.628,5.628,0,0,0-2.328-4.741,10.519,10.519,0,0,0-6.458-1.755Zm37.039-9.441H187.41v22.373h.161l17.537-22.373h14.015L199-25.972,219.97,1.71H206.245L187.571-23.083h-.161V1.71H175.992Zm52.29,0H258.1v10.49H239.7v10.692h18.4v10.329H239.7V-8.78h18.4V1.71H228.282Zm35.869,0h35.627v11.257H287.633V1.71H276.215V-40.009H264.151Zm43.454,0h18.116q7.3,0,11.781,4.257a14.734,14.734,0,0,1,4.479,11.2,18.035,18.035,0,0,1-2.2,8.655,13.745,13.745,0,0,1-6.637,6.113,20.283,20.283,0,0,1-7.585,2.1l-6.617.161V1.71H307.6Zm11.176,9.522v13.557h4.438a6.651,6.651,0,0,0,4.9-2.058,6.7,6.7,0,0,0,2.038-4.882,5.954,5.954,0,0,0-2.3-5,10.5,10.5,0,0,0-6.536-1.775Zm32.681-9.522H362.8V-9.708h15.614V1.71H351.463Zm53.414,0h8.846L435.3,1.71H423.814L419.574-8.7H399.243L395.09,1.71H383.66ZM409.3-33.917,403.073-18.3h12.589Zm73.614-14.525V-35.53q-8.594-5.164-15.05-5.164a13.026,13.026,0,0,0-10.329,4.438q-3.873,4.438-3.873,11.943,0,7.1,4.075,11.358T468.632-8.7q5.971,0,14.283-4.8V-.67q-9.32,3.107-15.534,3.107a24.117,24.117,0,0,1-18.156-7.848,26.745,26.745,0,0,1-7.464-19.145,27.141,27.141,0,0,1,7.605-19.468,24.613,24.613,0,0,1,18.5-7.969A37.36,37.36,0,0,1,482.915-48.442Zm8.675-2.824h29.817v10.49h-18.4v10.692h18.4v10.329h-18.4V-8.78h18.4V1.71H491.589Z" transform="translate(-2.578 51.992)" fill="url(#linear-gradient)"/>
</svg>
